<svg viewBox="893.0634 499.0424 381.9366 79.9152" width="5000" height="1046.1841049011798" xmlns="http://www.w3.org/2000/svg" xmlns:xlink="http://www.w3.org/1999/xlink" preserveAspectRatio="none"><defs></defs><style>.aIptOCySncolors-3 {fill:#101957;fill-opacity:1;}.aIptOCySncolors-4 {fill:#FFCB7C;fill-opacity:1;}.aIptOCySncolors-5 {fill:#C47D11;fill-opacity:1;}.aIptOCySncolors-6 {fill:#6B0B0C;fill-opacity:1;}.aIptOCySncolors-7 {fill:#530C0C;fill-opacity:1;}.companyName {fill:#101957;fill-opacity:1;}.icon1 {fill:#C8B59A;fill-opacity:1;}.icon2 {fill:#F96567;fill-opacity:1;}.icon3 {fill:#4152C6;fill-opacity:1;}.icon3-str {stroke:#4152C6;stroke-opacity:1;}.shapeStroke-str {stroke:#222D7D;stroke-opacity:1;}</style><defs>
      <filter
        x="893.0634"
        y="499.0424"
        width="381.9366"
        height="79.9152"
        id="global"
        filterUnits="userSpaceOnUse"
        primitiveUnits="userSpaceOnUse"
        color-interpolation-filters="sRGB">
        <feColorMatrix
                        type="matrix"
                        values="0.3333 0.3333 0.3333 0 0 0.3333 0.3333 0.3333 0 0 0.3333 0.3333 0.3333 0 0 0 0 0 1 0"/><feColorMatrix
                        type="matrix"
                        values="-1 0 0 0 1 0 -1 0 0 1 0 0 -1 0 1 0 0 0 1 0"/>
      </filter></defs><g filter="url(#global)"><g opacity="1" transform="rotate(0 893.0634 513.0876)">
<svg width="59.5114" height="51.825" x="893.0634" y="513.0876" version="1.1" preserveAspectRatio="none" viewBox="7.65791130065918 13.125049591064451 84.6885986328125 73.75015258789062">
  <g transform="matrix(1 0 0 1 0 0)" class="icon1"><path d="m33.125 77.344 15.312 9.5312v-17.031l-15.312-9.5312z"></path><path d="m50 47.812-15.469 9.6875 15.469 9.6875 15.469-9.6875z"></path><path d="m51.562 86.875 15.312-9.5312v-17.031l-15.312 9.5312z"></path><path d="m75.938 38.125c-3.2812 0-6.4062 0.9375-9.2188 2.8125-0.78125 0.46875-1.7188 0.3125-2.1875-0.46875s-0.3125-1.7188 0.46875-2.1875c2.8125-2.0312 6.25-3.125 9.6875-3.2812-2.0312-12.5-12.812-21.875-25.781-21.875-10.938 0-20.781 6.875-24.531 17.031 0.625 0 1.25-0.15625 2.0312-0.15625 5.4688 0 10.781 2.0312 14.688 5.7812 0.625 0.625 0.625 1.5625 0.15625 2.1875-0.625 0.625-1.5625 0.625-2.1875 0.15625-3.4375-3.125-7.9688-4.8438-12.656-4.8438-10.312 0-18.75 8.4375-18.75 18.75s8.4375 18.75 18.75 18.75h3.5938v-13.125c0-0.46875 0.3125-1.0938 0.78125-1.25l18.438-11.562c0.46875-0.3125 1.0938-0.3125 1.7188 0l18.438 11.562c0.46875 0.3125 0.78125 0.78125 0.78125 1.25v13.125h5.9375c8.9062 0 16.25-7.3438 16.25-16.25-0.15625-9.2188-7.5-16.406-16.406-16.406z"></path></g>
</svg>
</g><g opacity="1" transform="rotate(0 979.5432 521.9968)">
<svg width="295.4568" height="34.0064" x="979.5432" y="521.9968" version="1.1" preserveAspectRatio="none" viewBox="1.28 -29.68 260.64000000000004 30">
  <g transform="matrix(1 0 0 1 0 0)" class="companyName"><path id="id-D6z1nYkh11" d="M13.12 0.32Q9.72 0.32 7.02-1.10Q4.32-2.52 2.80-5.04Q1.28-7.56 1.28-10.76L1.28-10.76Q1.28-13.96 2.80-16.48Q4.32-19 7.02-20.42Q9.72-21.84 13.12-21.84L13.12-21.84Q16.52-21.84 19.20-20.42Q21.88-19 23.40-16.48Q24.92-13.96 24.92-10.76L24.92-10.76Q24.92-7.56 23.40-5.04Q21.88-2.52 19.20-1.10Q16.52 0.32 13.12 0.32L13.12 0.32ZM13.12-4.80Q15.52-4.80 17.06-6.42Q18.60-8.04 18.60-10.76L18.60-10.76Q18.60-13.48 17.06-15.10Q15.52-16.72 13.12-16.72L13.12-16.72Q10.72-16.72 9.16-15.10Q7.60-13.48 7.60-10.76L7.60-10.76Q7.60-8.04 9.16-6.42Q10.72-4.80 13.12-4.80L13.12-4.80Z M43.84-21.52L49.84-21.52L40.76 0L34.32 0L25.28-21.52L31.72-21.52L37.68-6.88L43.84-21.52Z M72.88-10.68Q72.88-10.56 72.76-9L72.76-9L56.48-9Q56.92-7 58.56-5.84Q60.20-4.68 62.64-4.68L62.64-4.68Q64.32-4.68 65.62-5.18Q66.92-5.68 68.04-6.76L68.04-6.76L71.36-3.16Q68.32 0.32 62.48 0.32L62.48 0.32Q58.84 0.32 56.04-1.10Q53.24-2.52 51.72-5.04Q50.20-7.56 50.20-10.76L50.20-10.76Q50.20-13.92 51.70-16.46Q53.20-19 55.82-20.42Q58.44-21.84 61.68-21.84L61.68-21.84Q64.84-21.84 67.40-20.48Q69.96-19.12 71.42-16.58Q72.88-14.04 72.88-10.68L72.88-10.68ZM61.72-17.12Q59.60-17.12 58.16-15.92Q56.72-14.72 56.40-12.64L56.40-12.64L67-12.64Q66.68-14.68 65.24-15.90Q63.80-17.12 61.72-17.12L61.72-17.12Z M83-18.68Q84.12-20.24 86.02-21.04Q87.92-21.84 90.40-21.84L90.40-21.84L90.40-16.08Q89.36-16.16 89-16.16L89-16.16Q86.32-16.16 84.80-14.66Q83.28-13.16 83.28-10.16L83.28-10.16L83.28 0L77.04 0L77.04-21.52L83-21.52L83-18.68Z M123.92-21.52L129.44-21.52L121.64 0L115.64 0L110.80-13.36L105.80 0L99.80 0L92.04-21.52L97.92-21.52L103-6.96L108.28-21.52L113.56-21.52L118.68-6.96L123.92-21.52Z M142.00 0.32Q138.60 0.32 135.90-1.10Q133.20-2.52 131.68-5.04Q130.16-7.56 130.16-10.76L130.16-10.76Q130.16-13.96 131.68-16.48Q133.20-19 135.90-20.42Q138.60-21.84 142.00-21.84L142.00-21.84Q145.40-21.84 148.08-20.42Q150.76-19 152.28-16.48Q153.80-13.96 153.80-10.76L153.80-10.76Q153.80-7.56 152.28-5.04Q150.76-2.52 148.08-1.10Q145.40 0.32 142.00 0.32L142.00 0.32ZM142.00-4.80Q144.40-4.80 145.94-6.42Q147.48-8.04 147.48-10.76L147.48-10.76Q147.48-13.48 145.94-15.10Q144.40-16.72 142.00-16.72L142.00-16.72Q139.60-16.72 138.04-15.10Q136.48-13.48 136.48-10.76L136.48-10.76Q136.48-8.04 138.04-6.42Q139.60-4.80 142.00-4.80L142.00-4.80Z M163.92-18.68Q165.04-20.24 166.94-21.04Q168.84-21.84 171.32-21.84L171.32-21.84L171.32-16.08Q170.28-16.16 169.92-16.16L169.92-16.16Q167.24-16.16 165.72-14.66Q164.20-13.16 164.20-10.16L164.20-10.16L164.20 0L157.96 0L157.96-21.52L163.92-21.52L163.92-18.68Z M175.04 0L175.04-29.68L181.28-29.68L181.28 0L175.04 0Z M202.76-29.68L209.00-29.68L209.00 0L203.04 0L203.04-2.48Q200.72 0.32 196.32 0.32L196.32 0.32Q193.28 0.32 190.82-1.04Q188.36-2.40 186.96-4.92Q185.56-7.44 185.56-10.76L185.56-10.76Q185.56-14.08 186.96-16.60Q188.36-19.12 190.82-20.48Q193.28-21.84 196.32-21.84L196.32-21.84Q200.44-21.84 202.76-19.24L202.76-19.24L202.76-29.68ZM197.40-4.80Q199.76-4.80 201.32-6.42Q202.88-8.04 202.88-10.76L202.88-10.76Q202.88-13.48 201.32-15.10Q199.76-16.72 197.40-16.72L197.40-16.72Q195.00-16.72 193.44-15.10Q191.88-13.48 191.88-10.76L191.88-10.76Q191.88-8.04 193.44-6.42Q195.00-4.80 197.40-4.80L197.40-4.80Z M235.84-10.68Q235.84-10.56 235.72-9L235.72-9L219.44-9Q219.88-7 221.52-5.84Q223.16-4.68 225.60-4.68L225.60-4.68Q227.28-4.68 228.58-5.18Q229.88-5.68 231.00-6.76L231.00-6.76L234.32-3.16Q231.28 0.32 225.44 0.32L225.44 0.32Q221.80 0.32 219.00-1.10Q216.20-2.52 214.68-5.04Q213.16-7.56 213.16-10.76L213.16-10.76Q213.16-13.92 214.66-16.46Q216.16-19 218.78-20.42Q221.40-21.84 224.64-21.84L224.64-21.84Q227.80-21.84 230.36-20.48Q232.92-19.12 234.38-16.58Q235.84-14.04 235.84-10.68L235.84-10.68ZM224.68-17.12Q222.56-17.12 221.12-15.92Q219.68-14.72 219.36-12.64L219.36-12.64L229.96-12.64Q229.64-14.68 228.20-15.90Q226.76-17.12 224.68-17.12L224.68-17.12Z M255.68-29.68L261.92-29.68L261.92 0L255.96 0L255.96-2.48Q253.64 0.32 249.24 0.32L249.24 0.32Q246.20 0.32 243.74-1.04Q241.28-2.40 239.88-4.92Q238.48-7.44 238.48-10.76L238.48-10.76Q238.48-14.08 239.88-16.60Q241.28-19.12 243.74-20.48Q246.20-21.84 249.24-21.84L249.24-21.84Q253.36-21.84 255.68-19.24L255.68-19.24L255.68-29.68ZM250.32-4.80Q252.68-4.80 254.24-6.42Q255.80-8.04 255.80-10.76L255.80-10.76Q255.80-13.48 254.24-15.10Q252.68-16.72 250.32-16.72L250.32-16.72Q247.92-16.72 246.36-15.10Q244.80-13.48 244.80-10.76L244.80-10.76Q244.80-8.04 246.36-6.42Q247.92-4.80 250.32-4.80L250.32-4.80Z"/></g>
</svg>
</g><g opacity="1" transform="rotate(0 962.5399 499.0424)">
<svg width="3.4007" height="79.9152" x="962.5399" y="499.0424" version="1.1" preserveAspectRatio="none" viewBox="0 0 3.4007 79.9152">
  <defs><rect x="0" y="0" width="3.4007" height="79.9152" rx="0px" ry="0px" id="id-tBXipXk0b"></rect></defs><use class="companyName shapeStroke-str" style="stroke-width:0;" xlink:href="#id-tBXipXk0b"></use>
</svg>
</g></g></svg>